<svg xmlns="http://www.w3.org/2000/svg" width="11.858" height="11.858" viewBox="0 0 11.858 11.858">
  <g id="add" transform="translate(0 -0.001)">
    <g id="Group_185" data-name="Group 185" transform="translate(0 0.001)">
      <path id="Path_411" data-name="Path 411" d="M11.215,5.1H6.756V.644A.8.8,0,0,0,5.929,0,.8.8,0,0,0,5.1.644V5.1H.643A.8.8,0,0,0,0,5.93a.8.8,0,0,0,.643.827H5.1v4.458a.8.8,0,0,0,.827.643.8.8,0,0,0,.827-.643V6.757h4.458a.8.8,0,0,0,.643-.827A.8.8,0,0,0,11.215,5.1Z" transform="translate(0 -0.001)" fill="#cfcfcf"/>
    </g>
  </g>
</svg>
