<svg xmlns="http://www.w3.org/2000/svg" width="38.602" height="35.569" viewBox="0 0 38.602 35.569">
  <path id="cigarette" d="M18.272,29.171A1.869,1.869,0,1,0,20,31.034,1.8,1.8,0,0,0,18.272,29.171Zm0,2.6a.749.749,0,1,1,.595-.733A.675.675,0,0,1,18.272,31.767ZM36.806,11.041c-.244-.244-.551-.507-.907-.813-1.592-1.366-3.774-3.238-3.02-5.559a1.241,1.241,0,0,0-.259-1.225,1.228,1.228,0,0,0-1.178-.384,7.484,7.484,0,0,0-2.412.983.565.565,0,0,0,.6.96,6.356,6.356,0,0,1,2.048-.837.1.1,0,0,1,.1.034.116.116,0,0,1,.024.12c-.986,3.038,1.734,5.372,3.359,6.766.338.29.631.541.844.754.614.614,1.619,1.8,1.446,2.853-.1.63-.637,1.189-1.587,1.66-2.108,1.046-3.38,2.366-3.68,3.815a4.009,4.009,0,0,0,1.1,3.461,2.138,2.138,0,0,1,.616,1.963,3.483,3.483,0,0,1-2.1,1.952,4.016,4.016,0,0,0-3.186-1.572h-.779a6.653,6.653,0,0,0-3.766-5.615,2.33,2.33,0,0,1-1.524-2.608,2.321,2.321,0,0,1,2.4-1.658c1.9.063,3.431-.656,3.914-1.829.253-.615.421-1.884-1.3-3.476-1.258-1.166-.646-2.967.26-4.154a.565.565,0,0,0-.9-.686c-1.572,2.06-1.622,4.285-.13,5.669.9.836,1.264,1.623,1.02,2.217-.3.721-1.434,1.175-2.831,1.129a3.45,3.45,0,0,0-3.531,2.5,3,3,0,0,0,.227,2.123,4.159,4.159,0,0,0,1.874,1.776,5.471,5.471,0,0,1,3.14,4.609H4.021A4.025,4.025,0,0,0,0,29.993v1.555a4,4,0,0,0,2.209,3.59.565.565,0,1,0,.51-1.009,2.878,2.878,0,0,1-1.588-2.581V29.993A2.893,2.893,0,0,1,4.021,27.1H9.577a11.9,11.9,0,0,0,0,7.334H5.027a.565.565,0,1,0,0,1.131h23.59a4.025,4.025,0,0,0,4.02-4.021V29.993a4,4,0,0,0-.275-1.46,6.063,6.063,0,0,0,1.371-.836,3.654,3.654,0,0,0,1.256-1.8,3.186,3.186,0,0,0-.843-3,2.949,2.949,0,0,1-.853-2.5c.227-1.1,1.291-2.146,3.076-3.031a3.549,3.549,0,0,0,2.2-2.49c.241-1.472-.826-2.9-1.763-3.835Zm-26.031,23.4a10.744,10.744,0,0,1,0-7.334h15a13.047,13.047,0,0,0,0,7.334Zm20.732-2.889a2.893,2.893,0,0,1-2.889,2.889H26.961a11.915,11.915,0,0,1,0-7.334h1.656a2.893,2.893,0,0,1,2.889,2.889Zm-16.893-2.17a.566.566,0,0,0-.565.565v.618a.565.565,0,1,0,1.131,0v-.618A.565.565,0,0,0,14.614,29.379Zm14.629,3.183a.566.566,0,1,0-.8.8l.444.444a.565.565,0,0,0,.8-.8ZM21.117,8.924a2.6,2.6,0,0,1,.936,2.347.922.922,0,0,0,.491.933.932.932,0,0,0,.436.109.921.921,0,0,0,.611-.232,3.776,3.776,0,0,0,1.125-2.132A4.558,4.558,0,0,0,24.2,6.907a5.267,5.267,0,0,1,.088-5.094,1.195,1.195,0,0,0-1.3-1.781,4.457,4.457,0,0,0-3.588,5.675,6.293,6.293,0,0,0,1.712,3.217Zm2.137-7.791a.073.073,0,0,1,.018,0,.056.056,0,0,1,.046.028.054.054,0,0,1,0,.069,6.435,6.435,0,0,0-.114,6.222,3.313,3.313,0,0,1,0,3.344,3.82,3.82,0,0,0-1.244-2.618,5.184,5.184,0,0,1-1.45-2.685c-.316-1.617-.1-3.685,2.739-4.358Zm4.593,28.083a.563.563,0,0,0,.4-.166l.444-.444a.566.566,0,0,0-.8-.8l-.444.444a.565.565,0,0,0,.4.965Zm-5.917.163a.565.565,0,0,0-.565.565v.618a.565.565,0,1,0,1.131,0v-.618A.566.566,0,0,0,21.931,29.379Zm7.018,1.867a.565.565,0,0,0-.565-.565h-.627a.565.565,0,0,0,0,1.131h.627A.565.565,0,0,0,28.949,31.246Zm.8-1.268a.566.566,0,0,0,0,.8l.444.444a.565.565,0,1,0,.8-.8l-.444-.444a.566.566,0,0,0-.8,0Zm0,0" transform="translate(-0.001 -0.001)"/>
</svg>
