<svg xmlns="http://www.w3.org/2000/svg" width="21.156" height="18.715" viewBox="0 0 21.156 18.715">
  <g id="continuous" transform="translate(0 -26.203)">
    <path id="Path_380" data-name="Path 380" d="M17.626,195.3a.657.657,0,0,0-.945.134q-.065.089-.133.175a7.26,7.26,0,0,1-2.712,2.078l-.017.008a7.646,7.646,0,0,1-5.839.34,7.959,7.959,0,0,1-4.226-3.4,8.443,8.443,0,0,1-1.226-4.23c0-.036,0-.073,0-.11h.827a.365.365,0,0,0,.247-.619l-1.5-1.562a.34.34,0,0,0-.494,0L.1,189.67a.365.365,0,0,0,.247.619h.828a9.864,9.864,0,0,0,1.437,5.089l.008.014a9.288,9.288,0,0,0,4.944,3.974,9.436,9.436,0,0,0,2.972.488,8.665,8.665,0,0,0,3.854-.893,8.515,8.515,0,0,0,3.362-2.682A.719.719,0,0,0,17.626,195.3Z" transform="translate(0 -154.937)"/>
    <path id="Path_381" data-name="Path 381" d="M86.589,35.906h-.828c0-.192-.006-.386-.016-.578a10,10,0,0,0-1.255-4.313,9.651,9.651,0,0,0-2.905-3.2,9.045,9.045,0,0,0-8.714-.889,9.423,9.423,0,0,0-3.712,2.879.72.72,0,0,0,.1.986.657.657,0,0,0,.948-.1q.076-.1.154-.192a8.05,8.05,0,0,1,3.023-2.273,7.74,7.74,0,0,1,7.455.76,8.263,8.263,0,0,1,2.487,2.737A8.549,8.549,0,0,1,84.4,35.411c0,.082.008.165.011.249s0,.165,0,.246h-.828a.365.365,0,0,0-.247.619l1.5,1.562a.34.34,0,0,0,.494,0l1.5-1.562A.365.365,0,0,0,86.589,35.906Z" transform="translate(-65.783 0)"/>
  </g>
</svg>
