<svg id="Group_326" data-name="Group 326" xmlns="http://www.w3.org/2000/svg" viewBox="0 0 253 281.189">
  <text id="Daily" transform="translate(0 259.189)" fill="#56d9fe" font-size="104" font-family="Arial-BoldMT, Arial" font-weight="700" letter-spacing="0.01em"><tspan x="0" y="0">Daily</tspan></text>
  <path id="Path_111" data-name="Path 111" d="M121.744,19.243V3.75c0-2.06,1.178-3.75,2.637-3.75s2.654,1.689,2.654,3.75V19.243c0,2.069-1.195,3.758-2.654,3.758S121.744,21.312,121.744,19.243ZM73.385,23c1.459,0,2.654-1.689,2.654-3.758V3.75C76.031,1.689,74.844,0,73.385,0S70.74,1.689,70.74,3.75V19.243C70.74,21.312,71.927,23,73.385,23ZM23.708,23c1.459,0,2.645-1.689,2.645-3.758V3.75c0-2.06-1.187-3.75-2.645-3.75s-2.645,1.689-2.645,3.75V19.243C21.054,21.312,22.249,23,23.708,23Zm125.2,13.5h-.19a11.717,11.717,0,0,1,.19,1.887V140.923a11.446,11.446,0,0,1-11.266,11.529H11.495A11.435,11.435,0,0,1,.229,140.923V38.387A10.85,10.85,0,0,1,.419,36.5H.229V21.814C.229,15.238,5.3,9.873,11.495,9.873h6.445v9.37c0,3.84,2.53,6.857,5.761,6.857s5.752-3.016,5.752-6.857V9.873H67.633v9.37c0,3.84,2.53,6.857,5.744,6.857s5.761-3.016,5.761-6.857V9.873h39.491v9.37c0,3.84,2.53,6.857,5.744,6.857,3.231,0,5.761-3.016,5.761-6.857V9.873h7.5c6.2,0,11.266,5.365,11.266,11.941V36.5Zm-10.12,96.4-.008-93.528a10.975,10.975,0,0,0-.429-2.876H9.4a11.024,11.024,0,0,0-.42,2.876V132.9c0,5.8,4.425,10.532,9.832,10.532H128.939C134.353,143.436,138.787,138.706,138.787,132.9Z" transform="translate(55.703)" fill="#56d9fe"/>
</svg>
