<svg xmlns="http://www.w3.org/2000/svg" viewBox="0 0 1378.324 1228.659"><g transform="translate(0 0)"><path d="M14.659,513.081,668,34.715a35.8,35.8,0,0,1,42.308,0l653.351,478.366a35.813,35.813,0,0,1-42.313,57.793L689.161,107.995,56.972,570.871a35.812,35.812,0,0,1-42.313-57.79Z" transform="translate(0.001 -27.798)"/></g><g transform="translate(151.967 551.182)"><g transform="translate(0 0)"><path d="M92.266,232.543a35.815,35.815,0,0,1,35.811,35.813V838.391H414.571V527.23c0-98.744,80.335-179.074,179.073-179.074S772.719,428.492,772.719,527.23V838.393h286.494V268.359a35.812,35.812,0,1,1,71.624,0V874.208a35.813,35.813,0,0,1-35.812,35.813H736.906A35.793,35.793,0,0,1,701.234,877a27.033,27.033,0,0,1-.139-2.789V527.234a107.45,107.45,0,1,0-214.9,0V874.208a26.347,26.347,0,0,1-.139,2.758,35.794,35.794,0,0,1-35.673,33.055H92.264a35.812,35.812,0,0,1-35.812-35.813V268.359A35.818,35.818,0,0,1,92.266,232.543Z" transform="translate(-56.452 -232.543)"/></g></g></svg>