<svg xmlns="http://www.w3.org/2000/svg" viewBox="0 0 48.763 40.192">
  <path id="box" d="M46.333,35.329H44.651v-15A2.656,2.656,0,0,0,42,17.677H34.281l0-5.471a.72.72,0,1,0-1.439,0l0,5.472H26.357a2.644,2.644,0,0,0-1.933.839,2.643,2.643,0,0,0-1.932-.839H14.774V2.653a1.214,1.214,0,0,1,1.213-1.212h3.262V4.08a1.64,1.64,0,0,0,1.637,1.64h5.606a1.639,1.639,0,0,0,1.635-1.64V1.441h3.5a1.214,1.214,0,0,1,1.213,1.212V8.821a.72.72,0,1,0,1.439,0V2.653A2.656,2.656,0,0,0,31.628,0H15.987a2.656,2.656,0,0,0-2.652,2.653V17.677H6.85A2.656,2.656,0,0,0,4.2,20.33v15H2.429a2.431,2.431,0,0,0,0,4.863h43.9a2.431,2.431,0,0,0,0-4.863ZM26.687,4.08a.2.2,0,0,1-.2.2H20.886a.2.2,0,0,1-.2-.2V1.441h6Zm4.371,15.038h6v2.639a.2.2,0,0,1-.2.2h-5.6a.2.2,0,0,1-.2-.2Zm-4.7,0h3.261v2.639a1.639,1.639,0,0,0,1.638,1.637h5.6A1.639,1.639,0,0,0,38.5,21.757V19.118H42a1.214,1.214,0,0,1,1.213,1.212v15H25.144v-15a1.214,1.214,0,0,1,1.213-1.212Zm-14.8,0h6v2.639a.2.2,0,0,1-.2.2H11.749a.2.2,0,0,1-.2-.2ZM46.333,38.751H2.429a.99.99,0,0,1,0-1.98H12.564a.721.721,0,0,0,0-1.441H5.637v-15A1.213,1.213,0,0,1,6.85,19.118h3.264v2.639a1.638,1.638,0,0,0,1.635,1.637h5.606a1.638,1.638,0,0,0,1.635-1.637V19.118h3.5A1.214,1.214,0,0,1,23.7,20.33v15H15.863a.721.721,0,0,0,0,1.441H46.333a.99.99,0,1,1,0,1.98Zm0,0" transform="translate(-0.001)"/>
</svg>
