<svg xmlns="http://www.w3.org/2000/svg" width="16.5" height="22" viewBox="0 0 16.5 22">
  <g id="lock" transform="translate(-64)">
    <g id="Group_159" data-name="Group 159" transform="translate(64)">
      <g id="Group_158" data-name="Group 158" transform="translate(0)">
        <path id="Path_392" data-name="Path 392" d="M214.083,280.641l-.289,2.6a.458.458,0,0,0,.456.509h1.833a.458.458,0,0,0,.456-.509l-.289-2.6a1.813,1.813,0,0,0,.75-1.474,1.833,1.833,0,0,0-3.667,0A1.813,1.813,0,0,0,214.083,280.641Zm1.083-2.391a.914.914,0,0,1,.4,1.738.459.459,0,0,0-.256.463l.265,2.382h-.809l.265-2.382a.459.459,0,0,0-.256-.463.914.914,0,0,1,.4-1.738Z" transform="translate(-206.916 -265.416)"/>
        <path id="Path_393" data-name="Path 393" d="M80.042,8.25H78.667V6.417a6.417,6.417,0,1,0-12.833,0V8.25H64.458A.458.458,0,0,0,64,8.708V20.167A1.835,1.835,0,0,0,65.833,22H78.667A1.835,1.835,0,0,0,80.5,20.167V8.708A.458.458,0,0,0,80.042,8.25ZM66.75,6.417a5.5,5.5,0,1,1,11,0V8.25h-.917V6.417a4.583,4.583,0,0,0-9.167,0V8.25H66.75Zm9.167,0V8.25H68.583V6.417a3.667,3.667,0,0,1,7.333,0Zm3.667,13.75a.918.918,0,0,1-.917.917H65.833a.918.918,0,0,1-.917-.917v-11H79.583Z" transform="translate(-64)"/>
      </g>
    </g>
  </g>
</svg>
