<svg xmlns="http://www.w3.org/2000/svg" width="33.55" height="33.572" viewBox="0 0 33.55 33.572">
  <g id="meal" transform="translate(0.826 1)">
    <g id="Group_236" data-name="Group 236" transform="translate(-0.826 -1)">
      <g id="Group_235" data-name="Group 235">
        <path id="Path_417" data-name="Path 417" d="M32.41,282.763c-1.007-1.343-2.014-1.343-4.476-.056l-4.812,2.965a8.837,8.837,0,0,1-3.581.5,1.716,1.716,0,0,0-.336-1.846,4.906,4.906,0,0,0-4.029-2.07H12.995a5.281,5.281,0,0,1-3.189-1.007c-2.019-1.514-5.176.133-6.714,1.116V281.2H-.826v14.548H3.091v-1.679h7.274c1.119,0,2.294-.112,3.413-.168l7.274-1.119a3.3,3.3,0,0,0,.783-.112,3.673,3.673,0,0,0,1.846-.951L32.131,285A1.658,1.658,0,0,0,32.41,282.763ZM1.972,294.625H.293v-12.31H1.972v12.31Zm29.488-10.351-8.5,6.6-.056.056a2.342,2.342,0,0,1-1.231.615h-.056A2.3,2.3,0,0,1,21,291.6l-7.386,1.119a21.1,21.1,0,0,1-3.245.224H3.091v-9.232c1.343-.951,4.476-2.742,6.043-1.511a6.61,6.61,0,0,0,3.861,1.231h2.182a3.7,3.7,0,0,1,3.189,1.679,1.034,1.034,0,0,1,.224.783c-.168.28-.839.392-1.567.448H11.372c-1.735,0-2.8.839-2.8,2.238a.56.56,0,0,0,1.119,0c0-.28,0-1.119,1.679-1.119h5.987c2.63.056,5.092,0,6.379-.671l4.812-2.966c2.35-1.175,2.574-.9,3.021-.224A.527.527,0,0,1,31.459,284.273Z" transform="translate(0.826 -262.172)"/>
        <path id="Path_418" data-name="Path 418" d="M35.707,16.681a.691.691,0,0,0,.448.224H60.1a.443.443,0,0,0,.448-.28l2.014-2.8a.515.515,0,0,0,.056-.56.588.588,0,0,0-.5-.28H60.985a12.871,12.871,0,0,0-12.3-12.3V.119h1.119a.529.529,0,0,0,.56-.56.529.529,0,0,0-.56-.56H46.45a.529.529,0,0,0-.56.56.529.529,0,0,0,.56.56h1.119V.691a12.871,12.871,0,0,0-12.3,12.3H34.14a.567.567,0,0,0-.5.336.662.662,0,0,0,.056.56ZM48.128,1.8a11.753,11.753,0,0,1,11.75,11.191h-23.5A11.83,11.83,0,0,1,48.128,1.8Zm-12.31,12.31H61l-1.175,1.679H36.434l-1.175-1.679Z" transform="translate(-31.342 1)"/>
        <path id="Path_419" data-name="Path 419" d="M122.836,58.733a10.78,10.78,0,0,0-9.232,5.316.62.62,0,0,0,.224.783.5.5,0,0,0,.28.056.588.588,0,0,0,.5-.28,9.588,9.588,0,0,1,8.225-4.756.56.56,0,0,0,0-1.119Z" transform="translate(-106.05 -54.816)"/>
      </g>
    </g>
  </g>
</svg>
