<svg xmlns="http://www.w3.org/2000/svg" width="39" height="26.394" viewBox="0 0 39 26.394">
  <g id="Group_328" data-name="Group 328" transform="translate(835 473.814)">
    <text id="Member" transform="translate(-835 -449.42)" fill="#ffc06a" font-size="10" font-family="Arial-BoldMT, Arial" font-weight="700" letter-spacing="0.01em"><tspan x="0" y="0">Member</tspan></text>
    <g id="Group_327" data-name="Group 327" transform="translate(-826 -473.814)">
      <g id="single-02" transform="translate(0 3.007)">
        <path id="Union_10" data-name="Union 10" d="M0,9.622A3.619,3.619,0,0,1,3.608,6.013h1.2A3.619,3.619,0,0,1,8.418,9.622Zm1.563-1.2H6.915a2.425,2.425,0,0,0-2.1-1.2H3.668A2.426,2.426,0,0,0,1.563,8.419ZM1.8,3.006v-.6a2.405,2.405,0,0,1,4.811,0v.6a2.405,2.405,0,1,1-4.811,0Zm1.2-.6v.6a1.2,1.2,0,1,0,2.406,0v-.6a1.2,1.2,0,0,0-2.406,0Z" transform="translate(0)" fill="#ffc06a"/>
      </g>
      <g id="single-02-2" data-name="single-02" transform="translate(6.615)">
        <path id="Union_10-2" data-name="Union 10" d="M0,9.622A3.619,3.619,0,0,1,3.608,6.013h1.2A3.619,3.619,0,0,1,8.418,9.622Zm1.563-1.2H6.915a2.425,2.425,0,0,0-2.1-1.2H3.668A2.426,2.426,0,0,0,1.563,8.419ZM1.8,3.006v-.6a2.405,2.405,0,0,1,4.811,0v.6a2.405,2.405,0,1,1-4.811,0Zm1.2-.6v.6a1.2,1.2,0,1,0,2.406,0v-.6a1.2,1.2,0,0,0-2.406,0Z" transform="translate(0)" fill="#ffc06a"/>
      </g>
      <g id="single-02-3" data-name="single-02" transform="translate(12.628 3.007)">
        <path id="Union_10-3" data-name="Union 10" d="M0,9.622A3.619,3.619,0,0,1,3.608,6.013h1.2A3.619,3.619,0,0,1,8.418,9.622Zm1.563-1.2H6.915a2.425,2.425,0,0,0-2.1-1.2H3.668A2.426,2.426,0,0,0,1.563,8.419ZM1.8,3.006v-.6a2.405,2.405,0,0,1,4.811,0v.6a2.405,2.405,0,1,1-4.811,0Zm1.2-.6v.6a1.2,1.2,0,1,0,2.406,0v-.6a1.2,1.2,0,0,0-2.406,0Z" transform="translate(0)" fill="#ffc06a"/>
      </g>
    </g>
  </g>
</svg>
