<svg id="menu" xmlns="http://www.w3.org/2000/svg" viewBox="0 0 56 56">
  <path id="Path_394" data-name="Path 394" d="M8,40a8,8,0,1,0,8,8A8.009,8.009,0,0,0,8,40ZM8,54a6,6,0,1,1,6-6A6.006,6.006,0,0,1,8,54Z"/>
  <path id="Path_395" data-name="Path 395" d="M28,40a8,8,0,1,0,8,8A8.009,8.009,0,0,0,28,40Zm0,14a6,6,0,1,1,6-6A6.006,6.006,0,0,1,28,54Z"/>
  <path id="Path_396" data-name="Path 396" d="M48,40a8,8,0,1,0,8,8A8.009,8.009,0,0,0,48,40Zm0,14a6,6,0,1,1,6-6A6.006,6.006,0,0,1,48,54Z" fill="#0466c9"/>
  <path id="Path_397" data-name="Path 397" d="M8,20a8,8,0,1,0,8,8A8.009,8.009,0,0,0,8,20ZM8,34a6,6,0,1,1,6-6A6.006,6.006,0,0,1,8,34Z"/>
  <path id="Path_398" data-name="Path 398" d="M28,20a8,8,0,1,0,8,8A8.009,8.009,0,0,0,28,20Zm0,14a6,6,0,1,1,6-6A6.006,6.006,0,0,1,28,34Z"/>
  <path id="Path_399" data-name="Path 399" d="M48,20a8,8,0,1,0,8,8A8.009,8.009,0,0,0,48,20Zm0,14a6,6,0,1,1,6-6A6.006,6.006,0,0,1,48,34Z"/>
  <path id="Path_400" data-name="Path 400" d="M8,0a8,8,0,1,0,8,8A8.009,8.009,0,0,0,8,0ZM8,14a6,6,0,1,1,6-6A6.006,6.006,0,0,1,8,14Z"/>
  <path id="Path_401" data-name="Path 401" d="M28,0a8,8,0,1,0,8,8A8.009,8.009,0,0,0,28,0Zm0,14a6,6,0,1,1,6-6A6.006,6.006,0,0,1,28,14Z"/>
  <path id="Path_402" data-name="Path 402" d="M48,16a8,8,0,1,0-8-8A8.009,8.009,0,0,0,48,16ZM48,2a6,6,0,1,1-6,6A6.006,6.006,0,0,1,48,2Z"/>
</svg>
