<svg xmlns="http://www.w3.org/2000/svg"  viewBox="0 0 39 27.58">
  <g id="Group_328" data-name="Group 328" transform="translate(626 946)">
    <text id="Monthly" transform="translate(-626 -921.42)" fill="#4ad991" font-size="10" font-family="Arial-BoldMT, Arial" font-weight="700" letter-spacing="0.01em"><tspan x="0" y="0">Monthly</tspan></text>
    <path id="Path_111" data-name="Path 111" d="M11.968,1.859V.362c0-.2.114-.362.255-.362s.256.163.256.362v1.5c0,.2-.115.363-.256.363S11.968,2.059,11.968,1.859ZM7.3,2.222c.141,0,.256-.163.256-.363V.362C7.552.163,7.437,0,7.3,0s-.256.163-.256.362v1.5C7.041,2.059,7.155,2.222,7.3,2.222Zm-4.8,0c.141,0,.256-.163.256-.363V.362C2.753.163,2.638,0,2.5,0s-.256.163-.256.362v1.5C2.241,2.059,2.356,2.222,2.5,2.222Zm12.095,1.3h-.018a1.132,1.132,0,0,1,.018.182v9.905A1.106,1.106,0,0,1,13.5,14.728H1.317A1.1,1.1,0,0,1,.229,13.614V3.708a1.048,1.048,0,0,1,.018-.182H.229V2.107A1.125,1.125,0,0,1,1.317.954H1.94v.905a.61.61,0,0,0,.556.662.61.61,0,0,0,.556-.662V.954H6.741v.905a.61.61,0,0,0,.555.662.611.611,0,0,0,.556-.662V.954h3.815v.905a.564.564,0,1,0,1.111,0V.954H13.5a1.125,1.125,0,0,1,1.088,1.154V3.526Zm-.978,9.313V3.8a1.06,1.06,0,0,0-.041-.278H1.115a1.065,1.065,0,0,0-.041.278v9.035a.988.988,0,0,0,.95,1.017H12.663A.989.989,0,0,0,13.614,12.839ZM8.3,6.222l.268,1.223L9.9,6.813h.022v5.522h1.576V5.365h-1.34Z" transform="translate(-614.427 -946)" fill="#4ad991"/>
    <path id="Path_113" data-name="Path 113" d="M1.971-12.2a1.58,1.58,0,0,0,.134.693.916.916,0,0,0,.9.506,1,1,0,0,0,.7-.277,1.033,1.033,0,0,0,.3-.8A.9.9,0,0,0,3.452-13a2.794,2.794,0,0,0-.994-.13v-.982a2.561,2.561,0,0,0,.927-.13.8.8,0,0,0,.454-.819.919.919,0,0,0-.232-.65.845.845,0,0,0-.652-.25.823.823,0,0,0-.71.308,1.315,1.315,0,0,0-.217.823H.757a3.468,3.468,0,0,1,.177-.987,2.222,2.222,0,0,1,.526-.756,1.828,1.828,0,0,1,.636-.376,2.731,2.731,0,0,1,.9-.13,2.392,2.392,0,0,1,1.6.518,1.73,1.73,0,0,1,.609,1.389,1.543,1.543,0,0,1-.363,1.04,1.241,1.241,0,0,1-.478.361.981.981,0,0,1,.535.323,1.73,1.73,0,0,1,.521,1.329,2.248,2.248,0,0,1-.609,1.558,2.313,2.313,0,0,1-1.8.672,2.177,2.177,0,0,1-2.045-.968A2.89,2.89,0,0,1,.633-12.2Z" transform="translate(-613.215 -923.477)" fill="#4ad991"/>
  </g>
</svg>
