<svg xmlns="http://www.w3.org/2000/svg" viewBox="0 0 78.903 78.903">
  <g id="Group_327" data-name="Group 327" transform="translate(-1041 -27)">
    <path id="Path_2" data-name="Path 2" d="M25.726,14H6a9.863,9.863,0,0,0,19.726,0Z" transform="translate(1064.589 82.041)" fill="#cfcfcf"/>
    <path id="Path_3" data-name="Path 3" d="M73.972,54.246H71.506c-3.452-3.452-7.4-8.383-7.4-14.794V24.657A24.418,24.418,0,0,0,39.452,0,24.418,24.418,0,0,0,14.794,24.657V39.452c0,6.411-3.945,11.342-7.4,14.794H4.931a4.931,4.931,0,0,0,0,9.863h69.04a4.931,4.931,0,1,0,0-9.863Z" transform="translate(1041 27)" fill="#cfcfcf"/>
  </g>
</svg>
