<svg xmlns="http://www.w3.org/2000/svg" width="27" height="26.394" viewBox="0 0 27 26.394">
  <g id="Group_327" data-name="Group 327" transform="translate(-30 -378.186)">
    <text id="Profit" transform="translate(30 402.58)" fill="#a3a1fb" font-size="10" font-family="Arial-BoldMT, Arial" font-weight="700" letter-spacing="0.01em"><tspan x="0" y="0">Profit</tspan></text>
    <g id="bar-graph-with-dollar-sign" transform="translate(36.186 378.186)">
      <g id="Layer_1_114_">
        <g id="Group_121" data-name="Group 121">
          <path id="Path_366" data-name="Path 366" d="M2.294,19.227H.665A.665.665,0,0,0,0,19.892v7.314a.665.665,0,0,0,.665.665H2.294a.665.665,0,0,0,.665-.665V19.892A.665.665,0,0,0,2.294,19.227Z" transform="translate(0 -13.243)" fill="#a3a1fb"/>
          <path id="Path_367" data-name="Path 367" d="M14.792,25.635H13.163a.665.665,0,0,0-.665.665v5.319a.665.665,0,0,0,.665.665h1.629a.665.665,0,0,0,.665-.665V26.3A.665.665,0,0,0,14.792,25.635Z" transform="translate(-8.608 -17.656)" fill="#a3a1fb"/>
          <path id="Path_368" data-name="Path 368" d="M27.289,25.635H25.66A.665.665,0,0,0,25,26.3v5.319a.665.665,0,0,0,.665.665h1.629a.665.665,0,0,0,.665-.665V26.3A.665.665,0,0,0,27.289,25.635Z" transform="translate(-17.215 -17.656)" fill="#a3a1fb"/>
          <path id="Path_369" data-name="Path 369" d="M39.787,19.227H38.158a.665.665,0,0,0-.665.665v7.314a.665.665,0,0,0,.665.665h1.629a.665.665,0,0,0,.665-.665V19.892A.665.665,0,0,0,39.787,19.227Z" transform="translate(-25.823 -13.243)" fill="#a3a1fb"/>
          <path id="Path_370" data-name="Path 370" d="M24.123,12.87v1.2c.362-.024.744-.194.744-.593S24.449,12.943,24.123,12.87Z" transform="translate(-16.615 -8.864)" fill="#a3a1fb"/>
          <path id="Path_371" data-name="Path 371" d="M20.778,7.128c0,.3.225.477.679.568V6.614C21.044,6.626,20.778,6.868,20.778,7.128Z" transform="translate(-14.311 -4.555)" fill="#a3a1fb"/>
          <path id="Path_372" data-name="Path 372" d="M15.407,0a3.657,3.657,0,1,0,3.657,3.657A3.661,3.661,0,0,0,15.407,0ZM15.6,5.82v.374a.183.183,0,1,1-.363,0V5.82c-1.022-.025-1.53-.636-1.53-1.113a.348.348,0,0,1,.374-.381c.677,0,.151.834,1.156.876V3.939c-.9-.163-1.439-.556-1.439-1.227a1.323,1.323,0,0,1,1.439-1.27V1.12a.183.183,0,1,1,.363,0v.322c.471.012,1.439.308,1.439.9a.364.364,0,0,1-.382.374c-.393,0-.388-.646-1.057-.659V3.208c.8.17,1.5.405,1.5,1.336C17.106,5.354,16.5,5.765,15.6,5.82Z" transform="translate(-8.093)" fill="#a3a1fb"/>
        </g>
      </g>
    </g>
  </g>
</svg>
