<svg xmlns="http://www.w3.org/2000/svg" width="23.068" height="24.152" viewBox="0 0 23.068 24.152">
  <g id="leaf" transform="translate(-7.435 0)">
    <g id="Group_163" data-name="Group 163" transform="translate(16.046 10.151)">
      <g id="Group_162" data-name="Group 162">
        <path id="Path_403" data-name="Path 403" d="M140.02,139.337a.1.1,0,0,0-.052-.006,20.8,20.8,0,0,0-3.631.854,10.168,10.168,0,0,0-2.635,1.294h0a5.371,5.371,0,0,0-1.067,1,3.515,3.515,0,0,0-.615,1.1,2.913,2.913,0,0,0-.137,1.04,3.142,3.142,0,0,0,.242,1.049,3.667,3.667,0,0,0,.2.408,4.056,4.056,0,0,0,.259.417.1.1,0,0,0,.137.02h.015a7.08,7.08,0,0,0,.758-1.035c.216-.356.405-.714.583-1.07a14.175,14.175,0,0,1,.924-1.583,5.508,5.508,0,0,1,1.338-1.358.425.425,0,0,1,.49.694,6.893,6.893,0,0,0-2,2.643c-.21.4-.425.807-.667,1.2a8.193,8.193,0,0,1-.653.927c-1.215,1.212-3.183,2.1-7.335,1.894a.522.522,0,1,0-.052,1.043c4.459.219,6.639-.729,8-2.04a4.937,4.937,0,0,0,1.119.475,3.844,3.844,0,0,0,1.521.128,3.013,3.013,0,0,0,.583-.128,2.773,2.773,0,0,0,.519-.233,2.626,2.626,0,0,0,.463-.344,2.72,2.72,0,0,0,.367-.449,3.607,3.607,0,0,0,.568-1.457,6.5,6.5,0,0,0,0-1.9,7.24,7.24,0,0,1,.16-2.474,11.37,11.37,0,0,1,.65-1.979A.1.1,0,0,0,140.02,139.337Z" transform="translate(-125.626 -139.33)"/>
      </g>
    </g>
    <g id="Group_165" data-name="Group 165" transform="translate(10.074 0)">
      <g id="Group_164" data-name="Group 164" transform="translate(0 0)">
        <path id="Path_404" data-name="Path 404" d="M59.726,9.619C57.7,5.626,55.795,4.2,53.973,3.685a4.956,4.956,0,0,0-.149-1.207,3.848,3.848,0,0,0-.65-1.384,3,3,0,0,0-.4-.428,2.764,2.764,0,0,0-.463-.332,2.608,2.608,0,0,0-.528-.216A2.722,2.722,0,0,0,51.2.007a3.608,3.608,0,0,0-1.556.242,6.5,6.5,0,0,0-1.655.941,7.239,7.239,0,0,1-2.212,1.087,11.366,11.366,0,0,1-2.04.426.1.1,0,0,0-.064.16A20.789,20.789,0,0,0,46.23,5.583a10.167,10.167,0,0,0,2.454,1.638,5.379,5.379,0,0,0,1.4.428,3.511,3.511,0,0,0,1.274-.026,2.914,2.914,0,0,0,.97-.4,3.142,3.142,0,0,0,.787-.734,3.647,3.647,0,0,0,.254-.379,4.037,4.037,0,0,0,.21-.414.1.1,0,0,0-.05-.128H53.5a7.063,7.063,0,0,0-1.277-.14c-.414,0-.822,0-1.224.02a14.146,14.146,0,0,1-1.833,0,5.5,5.5,0,0,1-1.845-.478.425.425,0,0,1,.356-.772,6.867,6.867,0,0,0,3.287.411c.452-.017.909-.035,1.373-.023a8.188,8.188,0,0,1,1.145.1c1.658.449,3.407,1.708,5.31,5.406a.522.522,0,1,0,.93-.475Z" transform="translate(-43.655 0)"/>
      </g>
    </g>
    <g id="Group_167" data-name="Group 167" transform="translate(7.435 6.616)">
      <g id="Group_166" data-name="Group 166" transform="translate(0)">
        <path id="Path_405" data-name="Path 405" d="M15.213,101.771a5.373,5.373,0,0,0-.318-1.428,3.511,3.511,0,0,0-.659-1.09,2.915,2.915,0,0,0-.834-.638,3.144,3.144,0,0,0-1.038-.312,3.65,3.65,0,0,0-.455-.029,4.071,4.071,0,0,0-.463.026.1.1,0,0,0-.087.108.1.1,0,0,0,0,.02,7.066,7.066,0,0,0,.516,1.166c.2.364.414.708.63,1.049a14.135,14.135,0,0,1,.909,1.591,5.5,5.5,0,0,1,.507,1.836.426.426,0,1,1-.845.079,6.936,6.936,0,0,0-1.288-3.051c-.242-.385-.487-.772-.705-1.166a8.162,8.162,0,0,1-.484-1.043c-.44-1.658-.224-3.8,2.04-7.3a.522.522,0,0,0-.874-.565c-2.419,3.751-2.687,6.12-2.232,7.953a4.932,4.932,0,0,0-.97.732,3.844,3.844,0,0,0-.874,1.253,3.018,3.018,0,0,0-.2.548,2.768,2.768,0,0,0-.058.568,2.624,2.624,0,0,0,.067.583,2.725,2.725,0,0,0,.192.53,3.611,3.611,0,0,0,.988,1.233,6.5,6.5,0,0,0,1.644.962,7.239,7.239,0,0,1,2.06,1.37,11.367,11.367,0,0,1,1.387,1.553.1.1,0,0,0,.137.02.1.1,0,0,0,.035-.047,20.805,20.805,0,0,0,1.078-3.567A10.171,10.171,0,0,0,15.213,101.771Z" transform="translate(-7.435 -90.812)"/>
      </g>
    </g>
  </g>
</svg>
