<svg xmlns="http://www.w3.org/2000/svg" width="18.761" height="19.408" viewBox="0 0 18.761 19.408">
  <g id="single" transform="translate(-8)">
    <g id="Group_172" data-name="Group 172" transform="translate(12.205)">
      <g id="Group_171" data-name="Group 171">
        <path id="Path_406" data-name="Path 406" d="M121.057,3.575V3.558A3.562,3.562,0,0,0,117.5,0h-3.235a.323.323,0,0,0-.323.323V5.5a3.552,3.552,0,0,0,1.3,2.751A5.472,5.472,0,0,0,112,13.262v5.822a.323.323,0,0,0,.323.323h10.351a.323.323,0,0,0,.323-.323V15.715a5.831,5.831,0,0,0,3.558-5.364V9.38A5.824,5.824,0,0,0,121.057,3.575Zm0,2.895a2.585,2.585,0,0,1,1.511,4.684,5.513,5.513,0,0,0-2.813-2.905,3.565,3.565,0,0,0,1.165-1.779h.138Zm-6.469-.97V.647H117.5a2.914,2.914,0,0,1,2.911,2.911V5.5A2.913,2.913,0,0,1,118.9,8.05a2.842,2.842,0,0,1-.316.149l-.024.009a2.978,2.978,0,0,1-2.119,0l-.024-.009a2.735,2.735,0,0,1-.316-.149A2.913,2.913,0,0,1,114.588,5.5Zm7.763,13.262h-9.7v-5.5A4.833,4.833,0,0,1,115.9,8.679c.023.011.047.019.071.03.087.041.176.08.267.114l.078.029a3.492,3.492,0,0,0,2.356,0l.081-.03c.09-.034.178-.072.265-.113.023-.011.048-.019.071-.03A4.866,4.866,0,0,1,122,11.462l-.087.032c-.039.014-.077.028-.116.04s-.1.026-.147.038c-.03.007-.06.016-.091.022-.059.012-.119.02-.179.027-.024,0-.047.008-.07.01-.084.008-.17.013-.256.013h-3.235V10.351a.323.323,0,0,0-.552-.229l-3.558,3.558a.323.323,0,0,0,0,.457L117.27,17.7a.32.32,0,0,0,.1.064c.01,0,.02.007.03.011a.327.327,0,0,0,.083.016c.007,0,.013,0,.02,0l.012,0a.314.314,0,0,0,.112-.022.323.323,0,0,0,.2-.3V16.173h2.911c.171,0,.342-.011.513-.026.062-.005.124-.013.185-.02.1-.013.2-.028.3-.047a5.783,5.783,0,0,0,.606-.138l.008,0Zm3.558-8.41a5.179,5.179,0,0,1-3.374,4.845q-.2.075-.407.134l-.066.017c-.126.034-.253.064-.38.088-.057.011-.115.018-.172.027-.1.015-.193.031-.29.04-.161.015-.323.025-.487.025H117.5a.323.323,0,0,0-.323.323v.836L114.4,13.909l2.777-2.777v.836a.323.323,0,0,0,.323.323h3.558a3.229,3.229,0,0,0,.369-.023c.029,0,.057-.009.086-.013.1-.014.189-.03.281-.052l.092-.024c.091-.024.18-.052.268-.083l.087-.032q.144-.057.28-.126c.014-.007.029-.012.043-.019l0,0a3.233,3.233,0,0,0-1.51-6.093V4.215a5.182,5.182,0,0,1,4.852,5.165Z" transform="translate(-112)"/>
      </g>
    </g>
    <g id="Group_174" data-name="Group 174" transform="translate(17.704 5.499)">
      <g id="Group_173" data-name="Group 173" transform="translate(0)">
        <path id="Path_407" data-name="Path 407" d="M249.294,136A1.3,1.3,0,0,1,248,137.294v.647A1.943,1.943,0,0,0,249.941,136Z" transform="translate(-248 -136)"/>
      </g>
    </g>
    <g id="Group_176" data-name="Group 176" transform="translate(15.44 3.235)">
      <g id="Group_175" data-name="Group 175">
        <path id="Path_408" data-name="Path 408" d="M192.97,80a.972.972,0,0,0-.97.97h.647a.323.323,0,1,1,.647,0h.647A.972.972,0,0,0,192.97,80Z" transform="translate(-192 -80)"/>
      </g>
    </g>
    <g id="Group_178" data-name="Group 178" transform="translate(17.704 3.235)">
      <g id="Group_177" data-name="Group 177" transform="translate(0)">
        <path id="Path_409" data-name="Path 409" d="M248.97,80a.972.972,0,0,0-.97.97h.647a.323.323,0,0,1,.647,0h.647A.972.972,0,0,0,248.97,80Z" transform="translate(-248 -80)"/>
      </g>
    </g>
    <g id="Group_180" data-name="Group 180" transform="translate(8)">
      <g id="Group_179" data-name="Group 179" transform="translate(0)">
        <path id="Path_410" data-name="Path 410" d="M12.2,1.941A1.619,1.619,0,0,1,10.588.323a.323.323,0,1,0-.647,0A1.619,1.619,0,0,1,8.323,1.941a.323.323,0,0,0,0,.647A1.619,1.619,0,0,1,9.941,4.2a.323.323,0,1,0,.647,0A1.619,1.619,0,0,1,12.2,2.588a.323.323,0,1,0,0-.647Zm-1.941,1.1a2.286,2.286,0,0,0-.775-.775,2.286,2.286,0,0,0,.775-.775,2.286,2.286,0,0,0,.775.775A2.286,2.286,0,0,0,10.264,3.04Z" transform="translate(-8)"/>
      </g>
    </g>
  </g>
</svg>
