<svg id="Group_326" data-name="Group 326" xmlns="http://www.w3.org/2000/svg"  viewBox="0 0 46 31.502">
  <g id="Group_57" data-name="Group 57">
    <path id="Path_333" data-name="Path 333" d="M45.042,75.376A.919.919,0,0,0,46,74.5v-7A3.682,3.682,0,0,0,42.167,64H3.833A3.682,3.682,0,0,0,0,67.5v7a.919.919,0,0,0,.958.875,4.393,4.393,0,1,1,0,8.75A.919.919,0,0,0,0,85v7a3.682,3.682,0,0,0,3.833,3.5H42.167A3.682,3.682,0,0,0,46,92V85a.919.919,0,0,0-.958-.875,4.393,4.393,0,1,1,0-8.75Zm-6.708,4.375a6.345,6.345,0,0,0,5.75,6.063V92a1.841,1.841,0,0,1-1.917,1.75H3.833A1.841,1.841,0,0,1,1.917,92V85.814a6.071,6.071,0,0,0,0-12.126V67.5a1.841,1.841,0,0,1,1.917-1.75H42.167a1.841,1.841,0,0,1,1.917,1.75v6.188A6.345,6.345,0,0,0,38.333,79.751Z" transform="translate(0 -64)"/>
    <path id="Path_334" data-name="Path 334" d="M129.05,104a1.049,1.049,0,0,0-1.05,1.05v2.362a1.05,1.05,0,1,0,2.1,0V105.05A1.049,1.049,0,0,0,129.05,104Z" transform="translate(-116.548 -100.064)"/>
    <path id="Path_335" data-name="Path 335" d="M129.05,192a1.049,1.049,0,0,0-1.05,1.05v2.1a1.05,1.05,0,1,0,2.1,0v-2.1A1.049,1.049,0,0,0,129.05,192Z" transform="translate(-116.548 -181.761)"/>
    <path id="Path_336" data-name="Path 336" d="M129.05,277.333a1.049,1.049,0,0,0-1.05,1.05v2.1a1.05,1.05,0,1,0,2.1,0v-2.1A1.049,1.049,0,0,0,129.05,277.333Z" transform="translate(-116.548 -260.268)"/>
    <path id="Path_337" data-name="Path 337" d="M129.05,362.667a1.049,1.049,0,0,0-1.05,1.049v2.1a1.05,1.05,0,0,0,2.1,0v-2.1A1.049,1.049,0,0,0,129.05,362.667Z" transform="translate(-116.548 -339.562)"/>
    <path id="Path_338" data-name="Path 338" d="M227.557,149.454a1.346,1.346,0,0,0-1.456.2l-12.6,13.237c-.322.338-.192.794.291,1.02a1.388,1.388,0,0,0,.581.124,1.22,1.22,0,0,0,.874-.327l12.6-13.237C228.17,150.135,228.04,149.679,227.557,149.454Z" transform="translate(-194.915 -140.933)"/>
    <path id="Path_339" data-name="Path 339" d="M200.4,154.582c0-2.894-1.883-5.248-4.2-5.248s-4.2,2.354-4.2,5.248,1.883,5.248,4.2,5.248S200.4,157.476,200.4,154.582Zm-6.3,0c0-1.707.961-3.149,2.1-3.149s2.1,1.442,2.1,3.149-.961,3.149-2.1,3.149S194.1,156.289,194.1,154.582Z" transform="translate(-175.079 -142.871)"/>
    <path id="Path_340" data-name="Path 340" d="M302.865,256c-2.315,0-4.2,2.354-4.2,5.248s1.883,5.248,4.2,5.248,4.2-2.355,4.2-5.248S305.18,256,302.865,256Zm0,8.4c-1.138,0-2.1-1.442-2.1-3.149s.961-3.149,2.1-3.149,2.1,1.442,2.1,3.149S304,264.4,302.865,264.4Z" transform="translate(-272.344 -241.458)"/>
  </g>
</svg>
