<svg id="Layer_1" data-name="Layer 1" xmlns="http://www.w3.org/2000/svg" viewBox="0 0 427.17 163.69"><defs><style>.cls-1{fill:#e94e1b;}.cls-2{fill:#f9b659;}.cls-3{fill:#122237;}.cls-4{fill:#1d1d1b;opacity:0.1;}.cls-5{fill:#dad1d1;}.cls-6{fill:#22395a;}.cls-7{fill:#f6f6f6;}.cls-12,.cls-7{opacity:0.2;}.cls-8{fill:#abede3;}.cls-9{fill:#403430;}.cls-10{opacity:0.75;}.cls-11,.cls-14{fill:#fff;}.cls-13{fill:#1d1715;}.cls-14{opacity:0.5;}</style></defs><title>sedan cars</title><path class="cls-1" d="M241.14,420.49l.81.1c.79.1,1.53-1.7,1.71-4.11L244.74,402c.2-2.67-.37-5-1.24-5.13l-.57-.05c-.76-.08-1.49,1.6-1.7,3.93L239.92,415C239.66,417.82,240.24,420.37,241.14,420.49Z" transform="translate(-234.83 -325.31)"/><path class="cls-2" d="M654.19,425l2.92-.35c1.83-.22,3.34-2.5,3.53-5.35L662,399.42c.19-2.83-1-5.38-2.73-6l-1.87-.67Z" transform="translate(-234.83 -325.31)"/><polygon class="cls-3" points="418.16 100.61 422.39 100.2 424.96 66.68 419.69 66.47 418.16 100.61"/><path class="cls-4" d="M234.83,481.75c0,4,94.52,7.25,211.13,7.25s211.12-3.24,211.12-7.25-94.52-7.24-211.12-7.24S234.83,477.75,234.83,481.75Z" transform="translate(-234.83 -325.31)"/><path class="cls-5" d="M653.57,445.71l4.7.16c1.21,0,2.24-1.19,2.42-2.88l1.14-10.92c.21-2-.9-3.87-2.36-3.87h-6.32l-1.42,14.44C651.58,444.24,652.43,445.67,653.57,445.71Z" transform="translate(-234.83 -325.31)"/><path class="cls-6" d="M256.11,447.94l44.82,4.41,2.37.24,5.63.55H617.76l26-4.73c5.6-1,10-7.28,10.72-15.23l2.89-39.46c.9-10-4.39-11.82-11.48-12.33l-117.17-8.31a18.18,18.18,0,0,1-12-6.27l-34.42-37.6a11,11,0,0,0-8.07-3.9H373c-9.82,0-19.27,5.46-26.31,15.18l-14.93,20.67a12.73,12.73,0,0,1-6.65,5l-75,22c-3.6,1.06-6.33,5.3-6.72,10.49l-1.9,24.46C240.53,435.8,247.17,447.06,256.11,447.94Z" transform="translate(-234.83 -325.31)"/><path class="cls-7" d="M536,378.46l109.77,7.79c2.46.19,9.15.53,8.26,8.46l-2.91,37.86c1.85-43.34-1.79-40.8-14.65-42.22Z" transform="translate(-234.83 -325.31)"/><path class="cls-7" d="M244.93,423.69l1.9-24.47c.24-3.1,1.85-5.62,4-6.26l74.42-23c.28-.09,1.39.75,1.39.75C254.21,394.77,250.84,393,244.93,423.69Z" transform="translate(-234.83 -325.31)"/><path class="cls-3" d="M474.28,330.17a8.18,8.18,0,0,1,6,2.89l34.42,37.61a24.91,24.91,0,0,0,4.71,4.05L524,401.26l-4.57,47H427.88l3.44-48.77-3.44-69.33Z" transform="translate(-234.83 -325.31)"/><path class="cls-8" d="M431.56,335.05h42.72a5.29,5.29,0,0,1,3.88,1.87l34.42,37.6c.25.28.52.52.78.78h-79.8Z" transform="translate(-234.83 -325.31)"/><path class="cls-3" d="M363.08,337.6c2.29-4.54,5.95-7.42,9.88-7.43h51.49l3.43,69.33-3.43,48.77H370.39c-1.44-21-11.6-38.36-25.66-44.38l-.21-23.34a23.85,23.85,0,0,1,2.41-10.91Z" transform="translate(-234.83 -325.31)"/><path class="cls-8" d="M365.88,340.42c1.69-3.36,4.34-5.37,7.14-5.37h48.23l2,40.37-74.57-.12Z" transform="translate(-234.83 -325.31)"/><rect class="cls-5" x="201.06" y="57.02" width="15.25" height="6.9"/><rect class="cls-5" x="113.85" y="57.02" width="15.25" height="6.9"/><path class="cls-5" d="M241.63,423.07l-.21,3.14h9.34c4.75,0,8.6,5.46,8.6,12.19v.13l-20.28-1.29c-2.3-.1-4.42-2.71-4.24-6q.06-1.06.12-2c.22-3.5,2.29-6.17,4.76-6.17Z" transform="translate(-234.83 -325.31)"/><path class="cls-5" d="M645,442.64h12.23c1.06,0,2-1.05,2.22-2.53l.73-4.76c.3-2-.78-3.9-2.22-3.9H645.69c-1.07,0-2,1.06-2.22,2.53l-.73,4.76C642.44,440.75,643.51,442.64,645,442.64Z" transform="translate(-234.83 -325.31)"/><polygon class="cls-6" points="264.75 51.9 272.06 56.55 272.51 51.32 266.3 43.15 264.75 51.9"/><path class="cls-6" d="M497.57,361.71l.6.1c1.87.33,3.41,2.26,3.86,4.86l1,5.44c1,5.64-2.32,10.94-6.39,10.23l-.81-.14Z" transform="translate(-234.83 -325.31)"/><path class="cls-9" d="M549.27,453.14H610.8l-1.71-13.72c-1.08-8.66-4.93-15.78-10.14-19.63a15,15,0,0,0-9-3.11H571.4a16.81,16.81,0,0,0-11.34,4.73c-4.79,4.36-8.27,11.44-9.32,19.86Z" transform="translate(-234.83 -325.31)"/><path class="cls-9" d="M300.93,452.35l2.37.24,2.29.22,3.34.33h53.44l-1.71-13.72c-1.06-8.61-4.88-15.68-10-19.54a15,15,0,0,0-9.08-3.2H323a16.74,16.74,0,0,0-11.23,4.62c-4.85,4.36-8.4,11.48-9.45,20Z" transform="translate(-234.83 -325.31)"/><g class="cls-10"><polygon class="cls-11" points="225.77 11.49 245.79 48.89 229.97 48.89 209.78 11.49 225.77 11.49"/><polygon class="cls-11" points="232.94 11.49 252.83 48.89 247.72 48.89 227.78 11.49 232.94 11.49"/></g><g class="cls-10"><polygon class="cls-11" points="156.41 11.49 176.44 48.89 160.61 48.89 140.42 11.49 156.41 11.49"/><polygon class="cls-11" points="163.59 11.49 183.48 48.89 178.37 48.89 158.43 11.49 163.59 11.49"/></g><path class="cls-12" d="M235,429.24q-.06,1-.12,2c-.18,3.25,1.94,5.86,4.24,6l4.79.31c2.59,5.8,7,9.87,12.24,10.39l44.82,4.41,2.37.24,5.63.55H617.76l26-4.73c3.05-.55,5.74-2.67,7.68-5.77h.27c-.15,1.6.7,3,1.84,3.07l4.7.16c1.21,0,2.24-1.19,2.42-2.88l1.14-10.92a4.94,4.94,0,0,0,0-1L240.84,405,239.92,415c-.26,2.78.32,5.33,1.22,5.45l.58.07-.19,2.51h-1.81C237.25,423.07,235.18,425.74,235,429.24Zm6.46-3,0-.24v.24Z" transform="translate(-234.83 -325.31)"/><path class="cls-5" d="M563.14,446.09c0,13.23,7.56,24,16.89,24s16.9-10.73,16.9-24-7.56-24-16.9-24S563.14,432.85,563.14,446.09Z" transform="translate(-234.83 -325.31)"/><path class="cls-13" d="M553.55,446.13a51.9,51.9,0,0,0,.47,7c2.31,17.39,13.1,30.54,26,30.53s23.68-13.17,26-30.53a53,53,0,0,0,.47-7.09c0-10.22-2.89-19.49-7.57-26.26a15,15,0,0,0-9-3.11H571.4a16.81,16.81,0,0,0-11.34,4.73A47.49,47.49,0,0,0,553.55,446.13Zm26.5,23.08c-7.27,0-13.44-6.74-15.55-16.07a32.09,32.09,0,0,1-.77-7C563.72,433.34,571,423,580,423s16.32,10.33,16.32,23.1a31.8,31.8,0,0,1-.78,7.08C593.46,462.45,587.31,469.2,580.05,469.21Z" transform="translate(-234.83 -325.31)"/><path class="cls-11" d="M567.71,446.09c0,9.64,5.52,17.47,12.32,17.47s12.32-7.83,12.32-17.47-5.51-17.47-12.32-17.47S567.71,436.44,567.71,446.09Z" transform="translate(-234.83 -325.31)"/><path class="cls-5" d="M572.61,446.09c0,5.81,3.32,10.53,7.42,10.53s7.43-4.72,7.43-10.53-3.33-10.54-7.43-10.54S572.61,440.27,572.61,446.09Z" transform="translate(-234.83 -325.31)"/><path class="cls-14" d="M586.47,427.07a18.57,18.57,0,0,1,6.26,8L580,445.94Z" transform="translate(-234.83 -325.31)"/><path class="cls-14" d="M580,445.94l-6.52,19.11a18.66,18.66,0,0,1-6.27-8.2Z" transform="translate(-234.83 -325.31)"/><path class="cls-5" d="M314.75,446.09c0,13.23,7.57,24,16.9,24s16.9-10.73,16.9-24-7.57-24-16.9-24S314.75,432.85,314.75,446.09Z" transform="translate(-234.83 -325.31)"/><path class="cls-13" d="M305.17,446.13a52.31,52.31,0,0,0,.42,6.68c2.23,17.54,13.07,30.87,26.08,30.86s23.68-13.17,26-30.53a51.38,51.38,0,0,0,.47-7.09c0-10.17-2.86-19.41-7.5-26.17a15,15,0,0,0-9.08-3.2H323a16.74,16.74,0,0,0-11.23,4.62A47.25,47.25,0,0,0,305.17,446.13Zm26.5,23.08c-7.28,0-13.45-6.74-15.55-16.07a31.49,31.49,0,0,1-.78-7c0-12.77,7.29-23.15,16.29-23.15S348,433.29,348,446.06a32.41,32.41,0,0,1-.77,7.08C345.08,462.45,338.93,469.2,331.67,469.21Z" transform="translate(-234.83 -325.31)"/><path class="cls-11" d="M319.33,446.09c0,9.64,5.52,17.47,12.32,17.47S344,455.73,344,446.09s-5.52-17.47-12.32-17.47S319.33,436.44,319.33,446.09Z" transform="translate(-234.83 -325.31)"/><path class="cls-5" d="M324.22,446.09c0,5.81,3.33,10.53,7.43,10.53s7.42-4.72,7.42-10.53-3.32-10.54-7.42-10.54S324.22,440.27,324.22,446.09Z" transform="translate(-234.83 -325.31)"/><path class="cls-14" d="M338.09,427.07a18.48,18.48,0,0,1,6.25,8l-12.69,10.84Z" transform="translate(-234.83 -325.31)"/><path class="cls-14" d="M331.65,445.94l-6.51,19.11a18.66,18.66,0,0,1-6.27-8.2Z" transform="translate(-234.83 -325.31)"/></svg>