<svg id="settings" xmlns="http://www.w3.org/2000/svg"  viewBox="0 0 38 38">
  <path id="Path_350" data-name="Path 350" d="M37.429,16.55l-2.2-.424A3.827,3.827,0,0,1,32.864,10.1l1.382-1.885a.7.7,0,0,0-.07-.913L31.191,4.321a.7.7,0,0,0-.892-.085L28.442,5.492a3.827,3.827,0,0,1-5.929-2.587L22.158.6a.7.7,0,0,0-.7-.6H17.241a.7.7,0,0,0-.691.571L16,3.414A3.828,3.828,0,0,1,10.1,5.86L7.7,4.236a.7.7,0,0,0-.892.085L3.823,7.307a.7.7,0,0,0-.07.914l1.382,1.885a3.826,3.826,0,0,1-2.364,6.021l-2.2.424a.7.7,0,0,0-.57.69v4.222a.7.7,0,0,0,.6.7l2.31.355a3.827,3.827,0,0,1,2.586,5.929L4.236,30.3a.7.7,0,0,0,.085.892l2.985,2.985a.7.7,0,0,0,.913.07l1.885-1.382a3.827,3.827,0,0,1,6.021,2.363l.424,2.2a.7.7,0,0,0,.691.571h4.222a.7.7,0,0,0,.7-.6l.25-1.625a3.826,3.826,0,0,1,6.046-2.5l1.326.972a.7.7,0,0,0,.913-.07l2.985-2.985a.7.7,0,0,0,.085-.892l-1.257-1.856a3.828,3.828,0,0,1,2.587-5.929l2.31-.355a.7.7,0,0,0,.6-.695V17.241A.7.7,0,0,0,37.429,16.55Zm-.836,4.309-1.714.264a5.234,5.234,0,0,0-3.538,8.109l.931,1.375-2.148,2.148-.839-.615a5.234,5.234,0,0,0-8.269,3.425l-.158,1.027H17.822l-.314-1.63a5.234,5.234,0,0,0-8.235-3.234l-1.4,1.025L5.727,30.607l.932-1.375A5.234,5.234,0,0,0,3.12,21.123l-1.713-.264V17.823l1.63-.313A5.235,5.235,0,0,0,6.271,9.273l-1.025-1.4L7.393,5.727l1.916,1.3a5.235,5.235,0,0,0,8.076-3.346l.437-2.272h3.037l.264,1.714a5.235,5.235,0,0,0,8.109,3.538l1.375-.931,2.148,2.148-1.025,1.4a5.235,5.235,0,0,0,3.234,8.236l1.629.312Z"/>
  <path id="Path_351" data-name="Path 351" d="M24.389,17a7.389,7.389,0,1,0,7.389,7.389A7.4,7.4,0,0,0,24.389,17Zm0,13.37a5.981,5.981,0,1,1,5.981-5.981A5.988,5.988,0,0,1,24.389,30.37Z" transform="translate(-5.037 -5.037)"/>
  <path id="Path_352" data-name="Path 352" d="M25.87,22a3.87,3.87,0,1,0,3.87,3.87A3.875,3.875,0,0,0,25.87,22Zm0,6.333a2.463,2.463,0,1,1,2.463-2.463A2.466,2.466,0,0,1,25.87,28.333Z" transform="translate(-6.518 -6.518)"/>
</svg>
