<svg id="Icon" xmlns="http://www.w3.org/2000/svg" xmlns:xlink="http://www.w3.org/1999/xlink" width="38" height="38" viewBox="0 0 38 38">
  <defs>
    <linearGradient id="linear-gradient" x2="0" y2="1" gradientUnits="objectBoundingBox">
      <stop offset="0" stop-color="#8280ff"/>
      <stop offset="1" stop-color="#7e96ff"/>
    </linearGradient>
  </defs>
  <circle id="Icon.BG" cx="19" cy="19" r="19" fill="#e8e7ff"/>
  <path id="New_customer_Icon" data-name="New customer Icon" d="M12,16V14H10V12h2V10h2v2h2v2H14v2ZM0,16V15a4.951,4.951,0,0,1,5-5H8v2H5a2.91,2.91,0,0,0-2.8,2H8v2ZM3,5V4a4,4,0,0,1,8,0V5A4,4,0,0,1,3,5ZM5,4V5A2,2,0,1,0,9,5V4A2,2,0,0,0,5,4Z" transform="translate(11 11)" fill="url(#linear-gradient)"/>
</svg>
