<svg xmlns="http://www.w3.org/2000/svg"  viewBox="0 0 35 26.58">
  <g id="Group_329" data-name="Group 329" transform="translate(596 1018)">
    <text id="Weekly" transform="translate(-596 -994.42)" fill="#0466c9" font-size="10" font-family="Arial-BoldMT, Arial" font-weight="700" letter-spacing="0.01em"><tspan x="0" y="0">Weekly</tspan></text>
    <g id="Group_328" data-name="Group 328" transform="translate(-585.725 -1018)">
      <path id="Path_111" data-name="Path 111" d="M11.69,1.815V.354c0-.194.111-.354.249-.354s.25.159.25.354V1.815c0,.2-.113.354-.25.354S11.69,2.01,11.69,1.815Zm-4.561.354c.138,0,.25-.159.25-.354V.354C7.378.159,7.266,0,7.129,0s-.249.159-.249.354V1.815C6.879,2.01,6.991,2.169,7.129,2.169Zm-4.685,0c.138,0,.249-.159.249-.354V.354C2.693.159,2.581,0,2.443,0s-.249.159-.249.354V1.815C2.193,2.01,2.306,2.169,2.443,2.169ZM14.251,3.442h-.018a1.1,1.1,0,0,1,.018.178v9.671a1.079,1.079,0,0,1-1.063,1.087H1.292A1.078,1.078,0,0,1,.229,13.291V3.62a1.023,1.023,0,0,1,.018-.178H.229V2.057A1.1,1.1,0,0,1,1.292.931H1.9v.884a.6.6,0,0,0,.543.647.6.6,0,0,0,.543-.647V.931h3.6v.884a.6.6,0,0,0,.542.647.6.6,0,0,0,.543-.647V.931H11.4v.884a.551.551,0,1,0,1.085,0V.931h.707a1.1,1.1,0,0,1,1.063,1.126V3.442ZM13.3,12.535V3.714a1.035,1.035,0,0,0-.04-.271H1.094a1.04,1.04,0,0,0-.04.271v8.821a.964.964,0,0,0,.927.993H12.368A.965.965,0,0,0,13.3,12.535Z" transform="translate(-0.229)" fill="#0466c9"/>
      <path id="Path_361" data-name="Path 361" d="M4.89-9.5a7.9,7.9,0,0,0-.781.985,8.7,8.7,0,0,0-.838,1.463,8.707,8.707,0,0,0-.482,1.447,6.01,6.01,0,0,0-.215,1.4h-1.3A7.644,7.644,0,0,1,2.4-7.761a8.4,8.4,0,0,1,1.154-1.6H.381L.4-10.481H4.89Z" transform="translate(4.235 16.102)" fill="#0466c9"/>
    </g>
  </g>
</svg>
